<?xml version="1.0" encoding="utf-8"?>
<svg viewBox="-22.935 77.981 634.173 229.359" xmlns="http://www.w3.org/2000/svg" xmlns:bx="https://boxy-svg.com">
    <defs>
        <style bx:fonts="M PLUS Code Latin" bx:pinned="true">@import url(https://fonts.googleapis.com/css2?family=M+PLUS+Code+Latin%3Aital%2Cwght%400%2C100..700&amp;display=swap);</style>
    </defs>
    <text style="fill: rgb(51, 51, 51); font-family: 'M PLUS Code Latin'; font-size: 28px; font-weight: 400.75; text-transform: capitalize; white-space: pre;" transform="matrix(2.3464150428771973, 0, 0, 5.286752223968506, -197.26223754882812, -828.4342651367188)" x="154.243" y="204.702">Pitch Perfect</text>
    <g transform="matrix(7.761303901672363, 0, 0, 5.092648029327393, -7.699871063232422, 115.9296646118164)" style="">
        <defs/>
        <path d="M 9.266 21.609 C 11.575 21.609 13.424 19.419 13.424 16.707 L 13.438 6.902 C 13.438 4.19 11.575 2 9.266 2 C 6.958 2 5.095 4.19 5.095 6.902 L 5.095 16.707 C 5.095 19.419 6.958 21.609 9.266 21.609 Z M 16.636 16.707 C 16.636 21.609 13.104 25.04 9.266 25.04 C 5.429 25.04 1.897 21.609 1.897 16.707 L -0.467 16.707 C -0.467 22.279 3.315 26.887 7.876 27.688 L 7.876 33.047 L 10.657 33.047 L 10.657 27.688 C 15.218 26.903 19 22.295 19 16.707 L 16.636 16.707 Z" style=""/>
    </g>
</svg>