<svg width="687" height="93" viewBox="0 0 687 93" fill="none" xmlns="http://www.w3.org/2000/svg">
    <path d="M144.612 11.456C153.572 11.456 160.1 13.216 164.196 16.736C168.292 20.256 170.34 25.216 170.34 31.616C170.34 34.432 169.86 37.152 168.9 39.776C168.004 42.336 166.5 44.64 164.388 46.688C162.276 48.736 159.46 50.368 155.94 51.584C152.42 52.736 148.1 53.312 142.98 53.312H135.108V80H126.468V11.456H144.612ZM143.844 18.848H135.108V45.92H142.02C146.372 45.92 149.988 45.472 152.868 44.576C155.748 43.616 157.892 42.112 159.3 40.064C160.708 38.016 161.412 35.328 161.412 32C161.412 27.584 160.004 24.288 157.188 22.112C154.372 19.936 149.924 18.848 143.844 18.848ZM191.889 28.544V80H183.441V28.544H191.889ZM187.761 9.248C189.041 9.248 190.161 9.696 191.121 10.592C192.145 11.424 192.657 12.768 192.657 14.624C192.657 16.416 192.145 17.76 191.121 18.656C190.161 19.552 189.041 20 187.761 20C186.353 20 185.169 19.552 184.209 18.656C183.249 17.76 182.769 16.416 182.769 14.624C182.769 12.768 183.249 11.424 184.209 10.592C185.169 9.696 186.353 9.248 187.761 9.248ZM225.375 74.048C226.655 74.048 227.967 73.952 229.311 73.76C230.655 73.504 231.743 73.248 232.575 72.992V79.424C231.679 79.872 230.399 80.224 228.735 80.48C227.071 80.8 225.471 80.96 223.935 80.96C221.247 80.96 218.751 80.512 216.447 79.616C214.207 78.656 212.383 77.024 210.975 74.72C209.567 72.416 208.863 69.184 208.863 65.024V35.072H201.567V31.04L208.959 27.68L212.319 16.736H217.311V28.544H232.191V35.072H217.311V64.832C217.311 67.968 218.047 70.304 219.519 71.84C221.055 73.312 223.007 74.048 225.375 74.048ZM263.519 80.96C258.975 80.96 254.911 80.032 251.327 78.176C247.807 76.32 245.023 73.44 242.975 69.536C240.991 65.632 239.999 60.64 239.999 54.56C239.999 48.224 241.055 43.072 243.167 39.104C245.279 35.136 248.127 32.224 251.711 30.368C255.359 28.512 259.487 27.584 264.095 27.584C266.719 27.584 269.247 27.872 271.679 28.448C274.111 28.96 276.095 29.6 277.631 30.368L275.039 37.376C273.503 36.8 271.711 36.256 269.663 35.744C267.615 35.232 265.695 34.976 263.903 34.976C260.447 34.976 257.599 35.712 255.359 37.184C253.119 38.656 251.455 40.832 250.367 43.712C249.279 46.592 248.735 50.176 248.735 54.464C248.735 58.56 249.279 62.048 250.367 64.928C251.455 67.808 253.087 69.984 255.263 71.456C257.439 72.928 260.159 73.664 263.423 73.664C266.239 73.664 268.703 73.376 270.815 72.8C272.991 72.224 274.975 71.52 276.767 70.688V78.176C275.039 79.072 273.119 79.744 271.007 80.192C268.959 80.704 266.463 80.96 263.519 80.96ZM297.452 28.448C297.452 29.664 297.388 30.912 297.26 32.192C297.196 33.472 297.1 34.624 296.972 35.648H297.548C298.636 33.856 300.012 32.384 301.676 31.232C303.34 30.08 305.196 29.216 307.244 28.64C309.292 28 311.404 27.68 313.58 27.68C317.74 27.68 321.196 28.352 323.948 29.696C326.764 30.976 328.876 32.992 330.284 35.744C331.692 38.496 332.396 42.08 332.396 46.496V80H324.044V47.072C324.044 42.912 323.116 39.808 321.26 37.76C319.404 35.712 316.492 34.688 312.524 34.688C308.684 34.688 305.676 35.424 303.5 36.896C301.324 38.304 299.756 40.416 298.796 43.232C297.9 45.984 297.452 49.376 297.452 53.408V80H289.004V7.04H297.452V28.448ZM396.331 11.456C405.291 11.456 411.819 13.216 415.915 16.736C420.011 20.256 422.059 25.216 422.059 31.616C422.059 34.432 421.579 37.152 420.619 39.776C419.723 42.336 418.219 44.64 416.107 46.688C413.995 48.736 411.179 50.368 407.659 51.584C404.139 52.736 399.819 53.312 394.699 53.312H386.827V80H378.187V11.456H396.331ZM395.563 18.848H386.827V45.92H393.739C398.091 45.92 401.707 45.472 404.587 44.576C407.467 43.616 409.611 42.112 411.019 40.064C412.427 38.016 413.131 35.328 413.131 32C413.131 27.584 411.723 24.288 408.907 22.112C406.091 19.936 401.643 18.848 395.563 18.848ZM455.032 27.584C459.448 27.584 463.224 28.544 466.36 30.464C469.56 32.384 471.992 35.104 473.656 38.624C475.384 42.08 476.248 46.144 476.248 50.816V55.904H441.016C441.144 61.728 442.616 66.176 445.432 69.248C448.312 72.256 452.312 73.76 457.432 73.76C460.696 73.76 463.576 73.472 466.072 72.896C468.632 72.256 471.256 71.36 473.944 70.208V77.6C471.32 78.752 468.728 79.584 466.168 80.096C463.608 80.672 460.568 80.96 457.048 80.96C452.184 80.96 447.864 79.968 444.088 77.984C440.376 76 437.464 73.056 435.352 69.152C433.304 65.184 432.28 60.352 432.28 54.656C432.28 49.024 433.208 44.192 435.064 40.16C436.984 36.128 439.64 33.024 443.032 30.848C446.488 28.672 450.488 27.584 455.032 27.584ZM454.936 34.496C450.904 34.496 447.704 35.808 445.336 38.432C443.032 40.992 441.656 44.576 441.208 49.184H467.416C467.416 46.24 466.968 43.68 466.072 41.504C465.176 39.328 463.8 37.632 461.944 36.416C460.152 35.136 457.816 34.496 454.936 34.496ZM513.348 27.584C514.308 27.584 515.332 27.648 516.42 27.776C517.572 27.84 518.564 27.968 519.396 28.16L518.34 35.936C517.508 35.744 516.58 35.584 515.556 35.456C514.596 35.328 513.668 35.264 512.772 35.264C510.788 35.264 508.9 35.68 507.108 36.512C505.316 37.344 503.716 38.528 502.308 40.064C500.9 41.536 499.78 43.328 498.948 45.44C498.18 47.552 497.796 49.92 497.796 52.544V80H489.348V28.544H496.26L497.22 37.952H497.604C498.692 36.032 500.004 34.304 501.54 32.768C503.076 31.168 504.836 29.92 506.82 29.024C508.804 28.064 510.98 27.584 513.348 27.584ZM552.716 35.072H539.756V80H531.308V35.072H522.284V31.136L531.308 28.256V25.28C531.308 20.864 531.948 17.28 533.228 14.528C534.572 11.776 536.492 9.76 538.988 8.47999C541.484 7.2 544.492 6.56 548.012 6.56C550.06 6.56 551.916 6.752 553.58 7.13599C555.308 7.456 556.78 7.84 557.996 8.288L555.788 14.912C554.764 14.592 553.58 14.272 552.236 13.952C550.892 13.632 549.516 13.472 548.108 13.472C545.292 13.472 543.18 14.432 541.772 16.352C540.428 18.208 539.756 21.152 539.756 25.184V28.544H552.716V35.072ZM581.876 27.584C586.292 27.584 590.068 28.544 593.204 30.464C596.404 32.384 598.836 35.104 600.5 38.624C602.228 42.08 603.092 46.144 603.092 50.816V55.904H567.86C567.988 61.728 569.46 66.176 572.276 69.248C575.156 72.256 579.156 73.76 584.276 73.76C587.54 73.76 590.42 73.472 592.916 72.896C595.476 72.256 598.1 71.36 600.788 70.208V77.6C598.164 78.752 595.572 79.584 593.012 80.096C590.452 80.672 587.412 80.96 583.892 80.96C579.028 80.96 574.708 79.968 570.932 77.984C567.22 76 564.308 73.056 562.196 69.152C560.148 65.184 559.124 60.352 559.124 54.656C559.124 49.024 560.052 44.192 561.908 40.16C563.828 36.128 566.484 33.024 569.876 30.848C573.332 28.672 577.332 27.584 581.876 27.584ZM581.78 34.496C577.748 34.496 574.548 35.808 572.18 38.432C569.876 40.992 568.5 44.576 568.052 49.184H594.26C594.26 46.24 593.812 43.68 592.916 41.504C592.02 39.328 590.644 37.632 588.788 36.416C586.996 35.136 584.66 34.496 581.78 34.496ZM636.831 80.96C632.287 80.96 628.223 80.032 624.639 78.176C621.119 76.32 618.335 73.44 616.287 69.536C614.303 65.632 613.311 60.64 613.311 54.56C613.311 48.224 614.367 43.072 616.479 39.104C618.591 35.136 621.439 32.224 625.023 30.368C628.671 28.512 632.799 27.584 637.407 27.584C640.031 27.584 642.559 27.872 644.991 28.448C647.423 28.96 649.407 29.6 650.943 30.368L648.351 37.376C646.815 36.8 645.023 36.256 642.975 35.744C640.927 35.232 639.007 34.976 637.215 34.976C633.759 34.976 630.911 35.712 628.671 37.184C626.431 38.656 624.767 40.832 623.679 43.712C622.591 46.592 622.047 50.176 622.047 54.464C622.047 58.56 622.591 62.048 623.679 64.928C624.767 67.808 626.399 69.984 628.575 71.456C630.751 72.928 633.471 73.664 636.735 73.664C639.551 73.664 642.015 73.376 644.127 72.8C646.303 72.224 648.287 71.52 650.079 70.688V78.176C648.351 79.072 646.431 79.744 644.319 80.192C642.271 80.704 639.775 80.96 636.831 80.96ZM679.5 74.048C680.78 74.048 682.092 73.952 683.436 73.76C684.78 73.504 685.868 73.248 686.7 72.992V79.424C685.804 79.872 684.524 80.224 682.86 80.48C681.196 80.8 679.596 80.96 678.06 80.96C675.372 80.96 672.876 80.512 670.572 79.616C668.332 78.656 666.508 77.024 665.1 74.72C663.692 72.416 662.988 69.184 662.988 65.024V35.072H655.692V31.04L663.084 27.68L666.444 16.736H671.436V28.544H686.316V35.072H671.436V64.832C671.436 67.968 672.172 70.304 673.644 71.84C675.18 73.312 677.132 74.048 679.5 74.048Z" fill="black"/>
    <path d="M53 54.25C49.3194 54.25 46.191 53.1198 43.6146 50.8594C41.0382 48.599 39.75 45.8542 39.75 42.625V19.375C39.75 16.1458 41.0382 13.401 43.6146 11.1406C46.191 8.88021 49.3194 7.75 53 7.75C56.6806 7.75 59.809 8.88021 62.3854 11.1406C64.9618 13.401 66.25 16.1458 66.25 19.375V42.625C66.25 45.8542 64.9618 48.599 62.3854 50.8594C59.809 53.1198 56.6806 54.25 53 54.25ZM48.5833 81.375V69.4594C40.9278 68.5552 34.5972 65.5521 29.5917 60.45C24.5861 55.3479 22.0833 49.4062 22.0833 42.625H30.9167C30.9167 47.9854 33.0698 52.5547 37.376 56.3328C41.6823 60.1109 46.8903 62 53 62C59.1097 62 64.3177 60.1109 68.624 56.3328C72.9302 52.5547 75.0833 47.9854 75.0833 42.625H83.9167C83.9167 49.4062 81.4139 55.3479 76.4083 60.45C71.4028 65.5521 65.0722 68.5552 57.4167 69.4594V81.375H48.5833Z" fill="#1D1B20"/>
</svg>
